<?xml version="1.0" encoding="iso-8859-1"?>
<!-- Uploaded to: SVG Repo, www.svgrepo.com, Generator: SVG Repo Mixer Tools -->
<svg height="800px" width="800px" version="1.1" id="Layer_1" xmlns="http://www.w3.org/2000/svg" xmlns:xlink="http://www.w3.org/1999/xlink" 
	 viewBox="0 0 512 512" xml:space="preserve">
<path style="fill:#FD5E95;" d="M512,281.18c0-17.673-5.617-34.931-15.918-49.178c4.935-10.858,7.525-22.765,7.525-34.756
	c0-26.736-12.644-51.661-34.028-67.481c-4.382-42.497-40.28-75.207-83.48-75.207c-0.936,0-1.875,0.016-2.815,0.047
	c-14.975-26.057-42.347-42.014-72.726-42.014c-11.991,0-23.898,2.589-34.756,7.525C261.554,9.814,244.296,4.197,226.623,4.197
	c-26.546,0-51.306,12.465-67.143,33.574c-0.001,0-0.003,0-0.004,0c-18.374,0-35.822,5.831-50.458,16.86
	c-12.964,9.771-22.956,23.321-28.472,38.505c-15.185,5.516-28.735,15.507-38.505,28.472c-11.029,14.636-16.86,32.084-16.86,50.458
	c0,4.805,0.42,9.633,1.252,14.404C9.574,202.319,0,224.324,0,247.607c0,26.207,12.038,50.493,32.546,66.349
	c-4.836,10.768-7.365,22.51-7.365,34.372c0,46.281,37.653,83.934,83.934,83.934c0.553,0,1.111-0.006,1.672-0.019
	c7.806,38.813,41.848,67.166,82.262,67.166c8.18,0,16.251-1.18,24.046-3.513c13.007,7.803,27.82,11.906,43.101,11.906
	c20.959,0,40.673-7.602,56.102-21.521c8.923,3.143,18.26,4.734,27.833,4.734c18.374,0,35.822-5.831,50.458-16.86
	c12.964-9.771,22.956-23.321,28.472-38.505c15.185-5.516,28.735-15.507,38.505-28.472c11.029-14.636,16.86-32.084,16.86-50.458
	c0-2.689-0.133-5.402-0.397-8.113C499.396,332.785,512,307.959,512,281.18z"/>
<path style="fill:#FFE7C2;" d="M463.071,279.184c-3.949-13.774-12.35-23.344-23.652-26.95c-11.307-3.604-23.695-0.666-34.891,8.278
	c-10.212,8.157-18.362,20.568-22.948,34.946c-4.585,14.376-5.127,29.214-1.523,41.778c3.949,13.774,12.35,23.344,23.653,26.95
	c3.186,1.017,6.43,1.505,9.685,1.505c19.643,0,39.563-17.801,48.152-44.728C466.133,306.586,466.675,291.748,463.071,279.184z"/>
<path style="fill:#FFD28F;" d="M443.273,290.708c-2.645-8.677-8.272-14.705-15.842-16.977c-7.573-2.27-15.87-0.42-23.368,5.214
	c-6.84,5.139-12.298,12.956-15.369,22.013c-3.071,9.055-3.434,18.403-1.021,26.318c2.645,8.677,8.272,14.705,15.842,16.977
	c2.134,0.64,4.307,0.947,6.487,0.947c13.156,0,26.498-11.214,32.251-28.175C445.324,307.97,445.687,298.623,443.273,290.708z"/>
<path style="fill:#FFE7C2;" d="M138.812,295.457c-4.586-14.377-12.736-26.788-22.948-34.946
	c-11.195-8.942-23.583-11.88-34.889-8.278c-11.303,3.606-19.704,13.177-23.653,26.95c-3.604,12.565-3.062,27.402,1.523,41.778
	c8.59,26.928,28.507,44.728,48.152,44.728c3.254,0,6.5-0.489,9.685-1.505c11.303-3.606,19.704-13.177,23.653-26.95
	C143.938,324.671,143.397,309.833,138.812,295.457z"/>
<path style="fill:#FFD28F;" d="M77.12,290.708c2.645-8.677,8.272-14.705,15.842-16.977c7.573-2.27,15.87-0.42,23.368,5.214
	c6.84,5.139,12.298,12.956,15.369,22.013c3.071,9.055,3.434,18.403,1.021,26.318c-2.645,8.677-8.272,14.705-15.842,16.977
	c-2.134,0.64-4.307,0.947-6.487,0.947c-13.156,0-26.498-11.214-32.251-28.175C75.07,307.97,74.707,298.623,77.12,290.708z"/>
<path style="fill:#FFE7C2;" d="M398,178.851c-1.505-2.578-4.264-4.162-7.248-4.162H129.641c-2.984,0-5.744,1.584-7.248,4.162
	c-14.178,24.282-21.672,52.049-21.672,80.297c0,43.593,17.476,97.539,45.609,140.785c32.487,49.94,72.926,77.444,113.866,77.444
	s81.38-27.504,113.866-77.444c28.133-43.246,45.609-97.192,45.609-140.785C419.672,230.899,412.178,203.133,398,178.851z"/>
<path style="fill:#FFDEAD;" d="M163.117,399.933c-28.133-43.246-45.609-97.192-45.609-140.785c0-28.248,7.494-56.015,21.672-80.297
	c1.505-2.578,4.264-4.162,7.248-4.162h-16.787c-2.984,0-5.744,1.584-7.248,4.162c-14.178,24.282-21.672,52.049-21.672,80.297
	c0,43.593,17.476,97.539,45.609,140.785c32.487,49.94,72.926,77.444,113.866,77.444c2.801,0,5.599-0.141,8.393-0.397
	C230.547,473.496,193.381,446.456,163.117,399.933z"/>
<path style="fill:#FD5E95;" d="M394.492,138.492c-10.636,0-21.139,2.253-30.792,6.565c-14.084-19.76-36.993-31.745-61.535-31.745
	c-18.663,0-36.579,6.929-50.361,19.259c-13.782-12.33-31.698-19.259-50.361-19.259c-30.166,0-57.498,18.334-69.325,45.546
	c-7.407-2.377-15.112-3.579-23.003-3.579c-41.654,0-75.541,33.887-75.541,75.541s33.887,75.541,75.541,75.541
	c30.166,0,57.498-18.334,69.325-45.546c7.407,2.377,15.112,3.579,23.003,3.579c18.663,0,36.579-6.929,50.361-19.259
	c13.782,12.33,31.698,19.259,50.361,19.259c10.636,0,21.139-2.253,30.792-6.565c14.084,19.76,36.993,31.745,61.535,31.745
	c41.653,0,75.541-33.887,75.541-75.541S436.145,138.492,394.492,138.492z"/>
<path style="fill:#7DBB34;" d="M415.182,362.863l14.916,45.906c0.281,0.865,1.087,1.45,1.996,1.45h48.269
	c2.032,0,2.878,2.601,1.234,3.796l-39.05,28.372c-0.735,0.534-1.043,1.481-0.763,2.346l14.916,45.906
	c0.628,1.934-1.584,3.541-3.229,2.346l-39.05-28.372c-0.735-0.534-1.731-0.534-2.467,0l-39.051,28.372
	c-1.644,1.195-3.857-0.412-3.229-2.346l14.916-45.906c0.281-0.865-0.027-1.812-0.763-2.346l-39.051-28.372
	c-1.644-1.195-0.799-3.796,1.234-3.796h48.269c0.909,0,1.714-0.585,1.996-1.45l14.916-45.906
	C411.818,360.93,414.553,360.93,415.182,362.863z"/>
<g>
	<path style="fill:#60A333;" d="M404.891,408.769l12.603-38.788l-2.313-7.119c-0.628-1.933-3.363-1.933-3.991,0l-14.916,45.906
		c-0.281,0.865-1.087,1.45-1.996,1.45h8.617C403.804,410.219,404.61,409.635,404.891,408.769z"/>
	<path style="fill:#60A333;" d="M393.205,444.733c0.281-0.865-0.026-1.812-0.763-2.346l-39.05-28.372
		c-1.644-1.195-0.799-3.796,1.234-3.796h-8.617c-2.032,0-2.878,2.601-1.234,3.796l39.051,28.372
		c0.735,0.534,1.043,1.481,0.763,2.346l-14.916,45.906c-0.628,1.933,1.584,3.541,3.229,2.346l6.055-4.399L393.205,444.733z"/>
</g>
<path style="fill:#7DBB34;" d="M105.212,362.863l-14.916,45.906c-0.281,0.865-1.087,1.45-1.996,1.45H40.031
	c-2.032,0-2.878,2.601-1.234,3.796l39.05,28.372c0.735,0.534,1.043,1.481,0.763,2.346l-14.916,45.906
	c-0.628,1.934,1.584,3.541,3.229,2.346l39.05-28.372c0.735-0.534,1.731-0.534,2.467,0l39.05,28.372
	c1.644,1.195,3.857-0.412,3.229-2.346l-14.916-45.906c-0.281-0.865,0.027-1.812,0.763-2.346l39.05-28.372
	c1.644-1.195,0.799-3.796-1.234-3.796h-48.269c-0.909,0-1.714-0.585-1.996-1.45l-14.916-45.906
	C108.575,360.93,105.84,360.93,105.212,362.863z"/>
<g>
	<path style="fill:#60A333;" d="M98.467,408.769l12.826-39.475l-2.089-6.43c-0.628-1.933-3.364-1.933-3.991,0l-14.916,45.906
		c-0.281,0.865-1.087,1.45-1.996,1.45h8.17C97.38,410.219,98.185,409.635,98.467,408.769z"/>
	<path style="fill:#60A333;" d="M86.781,444.733c0.281-0.865-0.026-1.812-0.763-2.346l-39.049-28.372
		c-1.644-1.195-0.799-3.796,1.234-3.796h-8.17c-2.033,0-2.878,2.601-1.234,3.796l39.05,28.372c0.735,0.534,1.043,1.481,0.763,2.346
		l-14.916,45.906c-0.628,1.933,1.584,3.541,3.229,2.346l5.468-3.973L86.781,444.733z"/>
</g>
<path style="fill:#B2325E;" d="M268.59,398.164h-16.787c-4.347,0-7.869-3.522-7.869-7.869c0-4.347,3.522-7.869,7.869-7.869h16.787
	c4.347,0,7.869,3.522,7.869,7.869C276.459,394.642,272.937,398.164,268.59,398.164z"/>
<path style="fill:#383A43;" d="M335.738,222.426c-34.37,0-62.775,25.962-66.674,59.303c-0.157-0.009-0.314-0.024-0.473-0.024
	h-17.263c-3.91-33.329-32.309-59.279-66.671-59.279c-37.026,0-67.148,30.122-67.148,67.148s30.122,67.148,67.148,67.148
	c34.362,0,62.761-25.949,66.671-59.279h17.263c0.159,0,0.316-0.015,0.473-0.024c3.9,33.341,32.304,59.303,66.674,59.303
	c37.026,0,67.148-30.122,67.148-67.148S372.763,222.426,335.738,222.426z"/>
<g>
	<path style="fill:#BDBDC0;" d="M184.656,239.213c-27.77,0-50.361,22.591-50.361,50.361s22.591,50.361,50.361,50.361
		s50.361-22.591,50.361-50.361S212.425,239.213,184.656,239.213z"/>
	<path style="fill:#BDBDC0;" d="M335.738,239.213c-27.77,0-50.361,22.591-50.361,50.361s22.591,50.361,50.361,50.361
		c27.77,0,50.361-22.591,50.361-50.361S363.507,239.213,335.738,239.213z"/>
</g>
<g>
	<path style="fill:#64666D;" d="M184.656,239.213c-27.77,0-50.361,22.591-50.361,50.361c0,2.648,0.213,5.246,0.61,7.784
		l57.536-57.536C189.902,239.426,187.304,239.213,184.656,239.213z"/>
	<path style="fill:#64666D;" d="M214.612,249.126l-70.404,70.404c5.826,7.846,13.87,13.951,23.206,17.363l64.561-64.561
		C228.563,262.997,222.458,254.952,214.612,249.126z"/>
	<path style="fill:#64666D;" d="M234.404,281.793l-57.529,57.529c2.538,0.396,5.134,0.613,7.781,0.613
		c27.77,0,50.361-22.591,50.361-50.361C235.016,286.927,234.799,284.331,234.404,281.793z"/>
	<path style="fill:#64666D;" d="M365.693,249.127l-70.402,70.402c6.15,8.276,14.777,14.609,24.775,17.892l63.518-63.519
		C380.302,263.903,373.969,255.277,365.693,249.127z"/>
	<path style="fill:#64666D;" d="M335.738,239.213c-27.77,0-50.361,22.591-50.361,50.361c0,1.576,0.081,3.134,0.223,4.673
		l54.81-54.81C338.872,239.294,337.314,239.213,335.738,239.213z"/>
	<path style="fill:#64666D;" d="M386.023,286.852l-53.007,53.007c0.901,0.048,1.809,0.076,2.722,0.076
		c27.77,0,50.361-22.591,50.361-50.361C386.098,288.66,386.071,287.753,386.023,286.852z"/>
</g>
</svg>